<?xml version="1.0" encoding="UTF-8" standalone="no"?>
<!DOCTYPE svg PUBLIC "-//W3C//DTD SVG 1.1//EN"
 "http://www.w3.org/Graphics/SVG/1.1/DTD/svg11.dtd">
<!-- Generated by graphviz version 5.0.0 (20220707.1540)
 -->
<!-- Title: dependencies Pages: 1 -->
<svg width="162pt" height="174pt"
 viewBox="0.00 0.00 162.00 173.80" xmlns="http://www.w3.org/2000/svg" xmlns:xlink="http://www.w3.org/1999/xlink">
<g id="graph0" class="graph" transform="scale(1 1) rotate(0) translate(4 169.8)">
<title>dependencies</title>
<polygon fill="white" stroke="transparent" points="-4,4 -4,-169.8 158,-169.8 158,4 -4,4"/>
<text text-anchor="middle" x="77" y="-8.2" font-family="sans-serif" font-size="14.00">dependencies</text>
<g id="clust1" class="cluster">
<title>cluster_CoreModule</title>
<polygon fill="none" stroke="black" stroke-dasharray="1,5" points="8,-32.8 8,-157.8 146,-157.8 146,-32.8 8,-32.8"/>
</g>
<g id="clust3" class="cluster">
<title>cluster_CoreModule_imports</title>
<polygon fill="none" stroke="black" points="16,-40.8 16,-92.8 138,-92.8 138,-40.8 16,-40.8"/>
</g>
<!-- MaterialModule -->
<g id="node1" class="node">
<title>MaterialModule</title>
<polygon fill="#8dd3c7" stroke="black" points="130.47,-84.8 127.47,-88.8 106.47,-88.8 103.47,-84.8 23.53,-84.8 23.53,-48.8 130.47,-48.8 130.47,-84.8"/>
<text text-anchor="middle" x="77" y="-62.6" font-family="Times,serif" font-size="14.00">MaterialModule</text>
</g>
<!-- CoreModule -->
<g id="node2" class="node">
<title>CoreModule</title>
<polygon fill="#8dd3c7" stroke="black" points="120.27,-149.8 117.27,-153.8 96.27,-153.8 93.27,-149.8 33.73,-149.8 33.73,-113.8 120.27,-113.8 120.27,-149.8"/>
<text text-anchor="middle" x="77" y="-127.6" font-family="Times,serif" font-size="14.00">CoreModule</text>
</g>
<!-- MaterialModule&#45;&gt;CoreModule -->
<g id="edge1" class="edge">
<title>MaterialModule&#45;&gt;CoreModule</title>
<path fill="none" stroke="black" d="M77,-84.91C77,-84.91 77,-103.79 77,-103.79"/>
<polygon fill="black" stroke="black" points="73.5,-103.79 77,-113.79 80.5,-103.79 73.5,-103.79"/>
</g>
</g>
</svg>
