<?xml version="1.0" encoding="UTF-8" standalone="no"?>
<!DOCTYPE svg PUBLIC "-//W3C//DTD SVG 1.1//EN"
 "http://www.w3.org/Graphics/SVG/1.1/DTD/svg11.dtd">
<!-- Generated by graphviz version 5.0.0 (20220707.1540)
 -->
<!-- Title: dependencies Pages: 1 -->
<svg width="728pt" height="247pt"
 viewBox="0.00 0.00 728.00 246.80" xmlns="http://www.w3.org/2000/svg" xmlns:xlink="http://www.w3.org/1999/xlink">
<g id="graph0" class="graph" transform="scale(1 1) rotate(0) translate(4 242.8)">
<title>dependencies</title>
<polygon fill="white" stroke="transparent" points="-4,4 -4,-242.8 724,-242.8 724,4 -4,4"/>
<text text-anchor="middle" x="360" y="-8.2" font-family="sans-serif" font-size="14.00">dependencies</text>
<g id="clust1" class="cluster">
<title>cluster_SharedModule</title>
<polygon fill="none" stroke="black" stroke-dasharray="1,5" points="8,-32.8 8,-230.8 712,-230.8 712,-32.8 8,-32.8"/>
</g>
<g id="clust2" class="cluster">
<title>cluster_SharedModule_declarations</title>
<polygon fill="none" stroke="black" points="146,-40.8 146,-92.8 704,-92.8 704,-40.8 146,-40.8"/>
</g>
<g id="clust7" class="cluster">
<title>cluster_SharedModule_exports</title>
<polygon fill="none" stroke="black" points="142,-170.8 142,-222.8 488,-222.8 488,-170.8 142,-170.8"/>
</g>
<g id="clust6" class="cluster">
<title>cluster_SharedModule_imports</title>
<polygon fill="none" stroke="black" points="16,-40.8 16,-92.8 138,-92.8 138,-40.8 16,-40.8"/>
</g>
<!-- ConfirmDeletePopupComponent -->
<g id="node1" class="node">
<title>ConfirmDeletePopupComponent</title>
<polygon fill="#ffffb3" stroke="black" points="695.59,-84.8 494.41,-84.8 494.41,-48.8 695.59,-48.8 695.59,-84.8"/>
<text text-anchor="middle" x="595" y="-62.6" font-family="Times,serif" font-size="14.00">ConfirmDeletePopupComponent</text>
</g>
<!-- SharedModule -->
<g id="node4" class="node">
<title>SharedModule</title>
<polygon fill="#8dd3c7" stroke="black" points="368.43,-149.8 365.43,-153.8 344.43,-153.8 341.43,-149.8 269.57,-149.8 269.57,-113.8 368.43,-113.8 368.43,-149.8"/>
<text text-anchor="middle" x="319" y="-127.6" font-family="Times,serif" font-size="14.00">SharedModule</text>
</g>
<!-- ConfirmDeletePopupComponent&#45;&gt;SharedModule -->
<g id="edge1" class="edge">
<title>ConfirmDeletePopupComponent&#45;&gt;SharedModule</title>
<path fill="none" stroke="black" d="M595,-84.91C595,-104.14 595,-131.8 595,-131.8 595,-131.8 378.34,-131.8 378.34,-131.8"/>
<polygon fill="black" stroke="black" points="378.34,-128.3 368.34,-131.8 378.34,-135.3 378.34,-128.3"/>
</g>
<!-- FileUploadComponent -->
<g id="node2" class="node">
<title>FileUploadComponent</title>
<polygon fill="#ffffb3" stroke="black" points="476.32,-84.8 331.68,-84.8 331.68,-48.8 476.32,-48.8 476.32,-84.8"/>
<text text-anchor="middle" x="404" y="-62.6" font-family="Times,serif" font-size="14.00">FileUploadComponent</text>
</g>
<!-- FileUploadComponent&#45;&gt;SharedModule -->
<g id="edge2" class="edge">
<title>FileUploadComponent&#45;&gt;SharedModule</title>
<path fill="none" stroke="black" d="M350.03,-84.91C350.03,-84.91 350.03,-103.79 350.03,-103.79"/>
<polygon fill="black" stroke="black" points="346.53,-103.79 350.03,-113.79 353.53,-103.79 346.53,-103.79"/>
</g>
<!-- MaterialTableComponent -->
<g id="node3" class="node">
<title>MaterialTableComponent</title>
<polygon fill="#ffffb3" stroke="black" points="314.12,-84.8 153.88,-84.8 153.88,-48.8 314.12,-48.8 314.12,-84.8"/>
<text text-anchor="middle" x="234" y="-62.6" font-family="Times,serif" font-size="14.00">MaterialTableComponent</text>
</g>
<!-- MaterialTableComponent&#45;&gt;SharedModule -->
<g id="edge3" class="edge">
<title>MaterialTableComponent&#45;&gt;SharedModule</title>
<path fill="none" stroke="black" d="M292.05,-84.91C292.05,-84.91 292.05,-103.79 292.05,-103.79"/>
<polygon fill="black" stroke="black" points="288.55,-103.79 292.05,-113.79 295.55,-103.79 288.55,-103.79"/>
</g>
<!-- FileUploadComponent  -->
<g id="node6" class="node">
<title>FileUploadComponent </title>
<polygon fill="#fb8072" stroke="black" points="479.82,-214.8 332.18,-214.8 332.18,-178.8 479.82,-178.8 479.82,-214.8"/>
<text text-anchor="middle" x="406" y="-192.6" font-family="Times,serif" font-size="14.00">FileUploadComponent </text>
</g>
<!-- SharedModule&#45;&gt;FileUploadComponent  -->
<g id="edge5" class="edge">
<title>SharedModule&#45;&gt;FileUploadComponent </title>
<path fill="none" stroke="black" stroke-dasharray="5,2" d="M350.15,-149.91C350.15,-149.91 350.15,-168.79 350.15,-168.79"/>
<polygon fill="black" stroke="black" points="346.65,-168.79 350.15,-178.79 353.65,-168.79 346.65,-168.79"/>
</g>
<!-- MaterialTableComponent  -->
<g id="node7" class="node">
<title>MaterialTableComponent </title>
<polygon fill="#fb8072" stroke="black" points="314.12,-214.8 149.88,-214.8 149.88,-178.8 314.12,-178.8 314.12,-214.8"/>
<text text-anchor="middle" x="232" y="-192.6" font-family="Times,serif" font-size="14.00">MaterialTableComponent </text>
</g>
<!-- SharedModule&#45;&gt;MaterialTableComponent  -->
<g id="edge6" class="edge">
<title>SharedModule&#45;&gt;MaterialTableComponent </title>
<path fill="none" stroke="black" stroke-dasharray="5,2" d="M291.92,-149.91C291.92,-149.91 291.92,-168.79 291.92,-168.79"/>
<polygon fill="black" stroke="black" points="288.42,-168.79 291.92,-178.79 295.42,-168.79 288.42,-168.79"/>
</g>
<!-- MaterialModule -->
<g id="node5" class="node">
<title>MaterialModule</title>
<polygon fill="#8dd3c7" stroke="black" points="130.47,-84.8 127.47,-88.8 106.47,-88.8 103.47,-84.8 23.53,-84.8 23.53,-48.8 130.47,-48.8 130.47,-84.8"/>
<text text-anchor="middle" x="77" y="-62.6" font-family="Times,serif" font-size="14.00">MaterialModule</text>
</g>
<!-- MaterialModule&#45;&gt;SharedModule -->
<g id="edge4" class="edge">
<title>MaterialModule&#45;&gt;SharedModule</title>
<path fill="none" stroke="black" d="M77,-84.91C77,-104.14 77,-131.8 77,-131.8 77,-131.8 259.74,-131.8 259.74,-131.8"/>
<polygon fill="black" stroke="black" points="259.74,-135.3 269.74,-131.8 259.74,-128.3 259.74,-135.3"/>
</g>
</g>
</svg>
