<?xml version="1.0" encoding="UTF-8" standalone="no"?>
<!DOCTYPE svg PUBLIC "-//W3C//DTD SVG 1.1//EN"
 "http://www.w3.org/Graphics/SVG/1.1/DTD/svg11.dtd">
<!-- Generated by graphviz version 5.0.0 (20220707.1540)
 -->
<!-- Title: dependencies Pages: 1 -->
<svg width="619pt" height="174pt"
 viewBox="0.00 0.00 619.00 173.80" xmlns="http://www.w3.org/2000/svg" xmlns:xlink="http://www.w3.org/1999/xlink">
<g id="graph0" class="graph" transform="scale(1 1) rotate(0) translate(4 169.8)">
<title>dependencies</title>
<polygon fill="white" stroke="transparent" points="-4,4 -4,-169.8 615,-169.8 615,4 -4,4"/>
<text text-anchor="middle" x="305.5" y="-8.2" font-family="sans-serif" font-size="14.00">dependencies</text>
<g id="clust1" class="cluster">
<title>cluster_AuthModule</title>
<polygon fill="none" stroke="black" stroke-dasharray="1,5" points="8,-32.8 8,-157.8 603,-157.8 603,-32.8 8,-32.8"/>
</g>
<g id="clust2" class="cluster">
<title>cluster_AuthModule_declarations</title>
<polygon fill="none" stroke="black" points="297,-40.8 297,-92.8 595,-92.8 595,-40.8 297,-40.8"/>
</g>
<g id="clust5" class="cluster">
<title>cluster_AuthModule_imports</title>
<polygon fill="none" stroke="black" points="16,-40.8 16,-92.8 289,-92.8 289,-40.8 16,-40.8"/>
</g>
<!-- LoginComponent -->
<g id="node1" class="node">
<title>LoginComponent</title>
<polygon fill="#ffffb3" stroke="black" points="587.27,-84.8 472.73,-84.8 472.73,-48.8 587.27,-48.8 587.27,-84.8"/>
<text text-anchor="middle" x="530" y="-62.6" font-family="Times,serif" font-size="14.00">LoginComponent</text>
</g>
<!-- AuthModule -->
<g id="node3" class="node">
<title>AuthModule</title>
<polygon fill="#8dd3c7" stroke="black" points="340.55,-149.8 337.55,-153.8 316.55,-153.8 313.55,-149.8 253.45,-149.8 253.45,-113.8 340.55,-113.8 340.55,-149.8"/>
<text text-anchor="middle" x="297" y="-127.6" font-family="Times,serif" font-size="14.00">AuthModule</text>
</g>
<!-- LoginComponent&#45;&gt;AuthModule -->
<g id="edge1" class="edge">
<title>LoginComponent&#45;&gt;AuthModule</title>
<path fill="none" stroke="black" d="M530,-84.91C530,-104.14 530,-131.8 530,-131.8 530,-131.8 350.83,-131.8 350.83,-131.8"/>
<polygon fill="black" stroke="black" points="350.83,-128.3 340.83,-131.8 350.83,-135.3 350.83,-128.3"/>
</g>
<!-- RegistrationComponent -->
<g id="node2" class="node">
<title>RegistrationComponent</title>
<polygon fill="#ffffb3" stroke="black" points="454.77,-84.8 305.23,-84.8 305.23,-48.8 454.77,-48.8 454.77,-84.8"/>
<text text-anchor="middle" x="380" y="-62.6" font-family="Times,serif" font-size="14.00">RegistrationComponent</text>
</g>
<!-- RegistrationComponent&#45;&gt;AuthModule -->
<g id="edge2" class="edge">
<title>RegistrationComponent&#45;&gt;AuthModule</title>
<path fill="none" stroke="black" d="M322.95,-84.91C322.95,-84.91 322.95,-103.79 322.95,-103.79"/>
<polygon fill="black" stroke="black" points="319.45,-103.79 322.95,-113.79 326.45,-103.79 319.45,-103.79"/>
</g>
<!-- AuthRoutingModule -->
<g id="node4" class="node">
<title>AuthRoutingModule</title>
<polygon fill="#8dd3c7" stroke="black" points="281.17,-84.8 278.17,-88.8 257.17,-88.8 254.17,-84.8 148.83,-84.8 148.83,-48.8 281.17,-48.8 281.17,-84.8"/>
<text text-anchor="middle" x="215" y="-62.6" font-family="Times,serif" font-size="14.00">AuthRoutingModule</text>
</g>
<!-- AuthRoutingModule&#45;&gt;AuthModule -->
<g id="edge3" class="edge">
<title>AuthRoutingModule&#45;&gt;AuthModule</title>
<path fill="none" stroke="black" d="M267.28,-84.91C267.28,-84.91 267.28,-103.79 267.28,-103.79"/>
<polygon fill="black" stroke="black" points="263.78,-103.79 267.28,-113.79 270.78,-103.79 263.78,-103.79"/>
</g>
<!-- MaterialModule -->
<g id="node5" class="node">
<title>MaterialModule</title>
<polygon fill="#8dd3c7" stroke="black" points="130.47,-84.8 127.47,-88.8 106.47,-88.8 103.47,-84.8 23.53,-84.8 23.53,-48.8 130.47,-48.8 130.47,-84.8"/>
<text text-anchor="middle" x="77" y="-62.6" font-family="Times,serif" font-size="14.00">MaterialModule</text>
</g>
<!-- MaterialModule&#45;&gt;AuthModule -->
<g id="edge4" class="edge">
<title>MaterialModule&#45;&gt;AuthModule</title>
<path fill="none" stroke="black" d="M77,-84.91C77,-104.14 77,-131.8 77,-131.8 77,-131.8 243.27,-131.8 243.27,-131.8"/>
<polygon fill="black" stroke="black" points="243.27,-135.3 253.27,-131.8 243.27,-128.3 243.27,-135.3"/>
</g>
</g>
</svg>
